<svg xmlns="http://www.w3.org/2000/svg" xml:space="preserve" id="time-management" x="0" y="0" enable-background="new 0 0 64 64" version="1.1" viewBox="0 0 64 64">
  <circle cx="32" cy="32" r="32" fill="#ff576b"></circle>
  <path fill="#898ac3" d="M15.68,26.5c0-13.3,10.74-24.09,24.04-24.16h0.12C53.18,2.34,64,13.16,64,26.5
				c0,13.34-10.82,24.16-24.16,24.16h-0.12C26.43,50.59,15.68,39.8,15.68,26.5z"></path>
  <path fill="#6367ae" d="M39.72,50.65V2.34h0.12C53.18,2.34,64,13.16,64,26.5c0,13.34-10.82,24.16-24.16,24.16H39.72z"></path>
  <circle cx="39.84" cy="26.5" r="18.4" fill="#efedee" transform="rotate(-81.825 39.84 26.498)"></circle>
  <path fill="#3b566a" d="M40.44 14.78H39c-.33 0-.59-.27-.59-.59v-3.72c0-.33.27-.59.59-.59h1.44c.33 0 .59.27.59.59v3.72C41.03 14.51 40.77 14.78 40.44 14.78zM39.24 38.22h1.44c.33 0 .59.27.59.59v3.72c0 .33-.27.59-.59.59h-1.44c-.33 0-.59-.27-.59-.59v-3.72C38.65 38.48 38.91 38.22 39.24 38.22zM51.56 27.22v-1.44c0-.33.27-.59.59-.59h3.72c.33 0 .59.27.59.59v1.44c0 .33-.27.59-.59.59h-3.72C51.82 27.81 51.56 27.54 51.56 27.22zM28.12 25.78v1.44c0 .33-.27.59-.59.59H23.8c-.33 0-.59-.27-.59-.59v-1.44c0-.33.26-.59.59-.59h3.72C27.85 25.18 28.12 25.45 28.12 25.78z"></path>
  <g>
    <path fill="#1c1919" d="M36.03,23.76L36.03,23.76c0.28-0.4,0.84-0.49,1.24-0.21l15.86,11.3c0.4,0.28,0.49,0.84,0.21,1.24l0,0
					c-0.28,0.4-0.84,0.49-1.24,0.21L36.24,25C35.84,24.72,35.74,24.16,36.03,23.76z"></path>
    <path fill="#50c8f0" d="M49.84,21.3l0.6,1.3c0.17,0.36,0.01,0.79-0.35,0.96l-12.84,5.9c-0.36,0.17-0.79,0.01-0.96-0.35l-0.6-1.3
					c-0.17-0.36-0.01-0.79,0.35-0.96l12.83-5.9C49.25,20.78,49.67,20.94,49.84,21.3z"></path>
    <path fill="#ef4944" d="M36.03,23.76L36.03,23.76c0.28-0.4,0.84-0.49,1.24-0.21l15.86,11.3c0.4,0.28,0.49,0.84,0.21,1.24l0,0
					c-0.28,0.4-0.84,0.49-1.24,0.21L36.24,25C35.84,24.72,35.74,24.16,36.03,23.76z"></path>
  </g>
  <g>
    <path fill="#2b414c" d="M26.85,36.08c-0.6,0-1.09-0.49-1.09-1.09v-3.86h-13.1v3.86c0,0.6-0.49,1.09-1.09,1.09
					c-0.6,0-1.09-0.49-1.09-1.09v-4.96c0-0.6,0.49-1.09,1.09-1.09h15.29c0.6,0,1.09,0.49,1.09,1.09v4.96
					C27.94,35.59,27.45,36.08,26.85,36.08z"></path>
    <path fill="#ea9847" d="M36.73,61.66H1.68C0.75,61.66,0,60.91,0,59.98V35.39c0-0.93,0.75-1.68,1.68-1.68h35.05
					c0.93,0,1.68,0.75,1.68,1.68v24.59C38.41,60.91,37.65,61.66,36.73,61.66z"></path>
    <path fill="#faa951" d="M34.71,48.93H3.7c-2.04,0-3.7-1.66-3.7-3.7v-9.84c0-0.93,0.75-1.68,1.68-1.68h35.05
					c0.93,0,1.68,0.75,1.68,1.68v9.84C38.41,47.27,36.75,48.93,34.71,48.93z"></path>
    <path fill="#2b414c" d="M10.03 51.98H7.88c-.55 0-.99-.44-.99-.99v-4.44c0-.55.44-.99.99-.99h2.16c.55 0 .99.44.99.99v4.44C11.03 51.54 10.58 51.98 10.03 51.98zM30.53 51.98h-2.16c-.55 0-.99-.44-.99-.99v-4.44c0-.55.44-.99.99-.99h2.16c.55 0 .99.44.99.99v4.44C31.52 51.54 31.08 51.98 30.53 51.98z"></path>
    <path fill="#334d5e" d="M23.33,31.84h-8.26c-0.37,0-0.67-0.3-0.67-0.67v-2.36c0-0.37,0.3-0.67,0.67-0.67h8.26
					c0.37,0,0.67,0.3,0.67,0.67v2.36C24.01,31.54,23.71,31.84,23.33,31.84z"></path>
  </g>
</svg>
